<svg width="18" height="18" viewBox="0 0 18 18" fill="none" xmlns="http://www.w3.org/2000/svg">
<circle cx="9" cy="9" r="9" fill="white"/>
<circle cx="9" cy="9" r="8.25" fill="white" stroke="#00509F" stroke-width="1.5"/>
<path d="M13 5.5C13 6.05228 12.5523 6.5 12 6.5C11.4477 6.5 11 6.05228 11 5.5C11 4.94771 11.4477 4.5 12 4.5C12.5523 4.5 13 4.94771 13 5.5Z" fill="#00509F"/>
<path fill-rule="evenodd" clip-rule="evenodd" d="M11.4333 9.63202H10.4413L11.332 7.74608C11.6573 7.06262 11.1346 6.29181 10.3453 6.29181H7.57196C7.13996 6.29181 6.75062 6.53333 6.57462 6.90846L6.42529 7.29901C6.31329 7.58678 6.48396 7.90025 6.78796 7.98247C7.04929 8.05441 7.32129 7.92594 7.42796 7.68442L7.58796 7.31956H8.76662L8.15001 8.65065C7.86802 8.55303 7.5652 8.5 7.25 8.5C5.73122 8.5 4.5 9.73121 4.5 11.25C4.5 12.7688 5.73122 14 7.25 14C8.76878 14 9.99999 12.7688 9.99999 11.25C9.99999 11.1372 9.9932 11.026 9.98 10.9167H11.4333V12.9722C11.4333 13.2549 11.6733 13.4861 11.9666 13.4861C12.26 13.4861 12.5 13.2549 12.5 12.9722V10.6598C12.5 10.0945 12.02 9.63202 11.4333 9.63202ZM7.73656 9.56853C7.54423 10.2168 8.05203 10.9167 8.77729 10.9167H8.9683C8.9891 11.0246 9 11.136 9 11.25C9 12.2165 8.21649 13 7.25 13C6.2835 13 5.5 12.2165 5.5 11.25C5.5 10.2835 6.2835 9.49999 7.25 9.49999C7.41884 9.49999 7.58209 9.52391 7.73656 9.56853Z" fill="#00509F"/>
</svg>
