<svg width="18" height="18" viewBox="0 0 18 18" fill="none" xmlns="http://www.w3.org/2000/svg">
<circle cx="9" cy="9" r="9" fill="#EEEEEE"/>
<circle cx="9" cy="9" r="8.25" fill="#EEEEEE" stroke="#A5A5A5" stroke-width="1.5"/>
<path d="M8 10.5051V12.7551C8 12.9596 7.927 13.1356 7.781 13.2836C7.6345 13.4311 7.4575 13.5051 7.25 13.5051C7.0455 13.5051 6.8695 13.4311 6.7215 13.2836C6.574 13.1356 6.5 12.9596 6.5 12.7551V5.75513C6.5 5.55063 6.574 5.37463 6.7215 5.22663C6.8695 5.07913 7.0455 5.00513 7.25 5.00513H9.75C10.5095 5.00513 11.158 5.27363 11.6945 5.81063C12.2315 6.34713 12.5 6.99563 12.5 7.75513C12.5 8.51463 12.2315 9.16313 11.6945 9.69963C11.158 10.2366 10.5095 10.5051 9.75 10.5051H8ZM8 9.00513H9.8115C10.154 9.00513 10.4475 8.88213 10.6935 8.63663C10.939 8.39113 11.0615 8.09763 11.0615 7.75513C11.0615 7.41263 10.939 7.11913 10.6935 6.87363C10.4475 6.62763 10.154 6.50513 9.8115 6.50513H8V9.00513Z" fill="#A5A5A5"/>
</svg>
