<svg width="46" height="46" viewBox="0 0 46 46" fill="none" xmlns="http://www.w3.org/2000/svg">
<g filter="url(#filter0_d_2568_25344)">
<rect x="3" y="6" width="36" height="36" rx="4" fill="#00509F"/>
</g>
<path d="M17.25 27.7627V33.3877C17.25 33.899 17.0675 34.339 16.7025 34.709C16.3363 35.0777 15.8938 35.2627 15.375 35.2627C14.8638 35.2627 14.4238 35.0777 14.0538 34.709C13.685 34.339 13.5 33.899 13.5 33.3877V15.8877C13.5 15.3764 13.685 14.9364 14.0538 14.5664C14.4238 14.1977 14.8638 14.0127 15.375 14.0127H21.625C23.5238 14.0127 25.145 14.6839 26.4863 16.0264C27.8288 17.3677 28.5 18.989 28.5 20.8877C28.5 22.7865 27.8288 24.4077 26.4863 25.749C25.145 27.0915 23.5238 27.7627 21.625 27.7627H17.25ZM17.25 24.0127H21.7788C22.635 24.0127 23.3688 23.7052 23.9838 23.0915C24.5975 22.4777 24.9038 21.744 24.9038 20.8877C24.9038 20.0315 24.5975 19.2977 23.9838 18.684C23.3688 18.069 22.635 17.7627 21.7788 17.7627H17.25V24.0127Z" fill="white"/>
<g filter="url(#filter1_d_2568_25344)">
<rect x="31" y="2" width="12" height="12" rx="6" fill="white" shape-rendering="crispEdges"/>
<rect x="31.9229" y="2.9231" width="10.1538" height="10.1538" rx="5.07692" fill="#D03434"/>
<rect x="31.5" y="2.5" width="11" height="11" rx="5.5" stroke="white" shape-rendering="crispEdges"/>
</g>
<defs>
<filter id="filter0_d_2568_25344" x="0" y="4" width="42" height="42" filterUnits="userSpaceOnUse" color-interpolation-filters="sRGB">
<feFlood flood-opacity="0" result="BackgroundImageFix"/>
<feColorMatrix in="SourceAlpha" type="matrix" values="0 0 0 0 0 0 0 0 0 0 0 0 0 0 0 0 0 0 127 0" result="hardAlpha"/>
<feOffset dy="1"/>
<feGaussianBlur stdDeviation="1.5"/>
<feComposite in2="hardAlpha" operator="out"/>
<feColorMatrix type="matrix" values="0 0 0 0 0 0 0 0 0 0 0 0 0 0 0 0 0 0 0.12 0"/>
<feBlend mode="normal" in2="BackgroundImageFix" result="effect1_dropShadow_2568_25344"/>
<feBlend mode="normal" in="SourceGraphic" in2="effect1_dropShadow_2568_25344" result="shape"/>
</filter>
<filter id="filter1_d_2568_25344" x="28" y="0" width="18" height="18" filterUnits="userSpaceOnUse" color-interpolation-filters="sRGB">
<feFlood flood-opacity="0" result="BackgroundImageFix"/>
<feColorMatrix in="SourceAlpha" type="matrix" values="0 0 0 0 0 0 0 0 0 0 0 0 0 0 0 0 0 0 127 0" result="hardAlpha"/>
<feOffset dy="1"/>
<feGaussianBlur stdDeviation="1.5"/>
<feComposite in2="hardAlpha" operator="out"/>
<feColorMatrix type="matrix" values="0 0 0 0 0 0 0 0 0 0 0 0 0 0 0 0 0 0 0.12 0"/>
<feBlend mode="normal" in2="BackgroundImageFix" result="effect1_dropShadow_2568_25344"/>
<feBlend mode="normal" in="SourceGraphic" in2="effect1_dropShadow_2568_25344" result="shape"/>
</filter>
</defs>
</svg>
