<svg width="42" height="42" viewBox="0 0 42 42" fill="none" xmlns="http://www.w3.org/2000/svg">
<g filter="url(#filter0_d_2561_24705)">
<rect x="3" y="2" width="36" height="36" rx="4" fill="#001E49"/>
</g>
<path fill-rule="evenodd" clip-rule="evenodd" d="M23.0028 8.49979V7.5106C23.0028 6.96644 22.807 6.4746 22.4183 6.08596C22.0318 5.69947 21.5447 5.50037 21.0013 5.50037C20.4589 5.50037 19.9714 5.69888 19.5855 6.08595C19.1955 6.47477 18.9999 6.96681 18.9999 7.5106V8.49979H17.875C17.5298 8.49979 17.25 8.77961 17.25 9.12478V13.1248C17.25 13.47 17.5298 13.7498 17.875 13.7498H24.125C24.4702 13.7498 24.75 13.47 24.75 13.1248V9.12478C24.75 8.77961 24.4702 8.49979 24.125 8.49979H23.0028ZM21.4403 8.49979V7.5106C21.4403 7.36748 21.3998 7.27712 21.3135 7.19081C21.2228 7.10015 21.1343 7.06287 21.0013 7.06287C20.8681 7.06287 20.7804 7.1003 20.6916 7.18954L20.6891 7.19208C20.6027 7.27803 20.5624 7.36771 20.5624 7.5106V8.49979H21.4403Z" fill="white"/>
<path d="M15.5312 8.74814C15.532 9.17961 15.1829 9.53003 14.7514 9.53082L8.03125 9.54316V32.9681L33.9687 32.9622V9.53642L27.2493 9.53082C26.8179 9.53046 26.4684 9.18039 26.4687 8.74892C26.4691 8.31745 26.8192 7.96796 27.2506 7.96832L35.5312 7.97523V34.5244L6.46875 34.531V7.98352L14.7486 7.96832C15.18 7.96753 15.5305 8.31667 15.5312 8.74814Z" fill="white"/>
<path fill-rule="evenodd" clip-rule="evenodd" d="M20.9084 16.9045C20.9084 16.4739 21.2575 16.1248 21.6881 16.1248H24.1684C24.9564 16.1248 25.59 16.7735 25.5715 17.5613L25.5 20.6011C25.4979 20.6902 25.5213 20.778 25.5674 20.8542L26.5677 22.5085C27.0755 22.3107 27.6277 22.2022 28.2051 22.2022C30.6998 22.2022 32.7251 24.2297 32.7251 26.726C32.7251 29.2223 30.6998 31.2498 28.2051 31.2498C25.7093 31.2498 23.684 29.2223 23.684 26.726C23.684 25.3668 24.2844 24.1467 25.2343 23.317L24.7352 22.4917L22.4917 26.3593C22.3873 26.5392 22.2382 26.7088 22.0619 26.8578L22.0621 26.8851C22.0621 27.7463 21.3639 28.4445 20.5027 28.4445C19.8358 28.4445 19.2667 28.0259 19.0438 27.4372H18.198C17.8567 29.5962 15.9866 31.2498 13.7336 31.2498C11.2378 31.2498 9.21258 29.2223 9.21258 26.726C9.21258 24.2297 11.2378 22.2022 13.7336 22.2022C14.2936 22.2022 14.8299 22.3044 15.325 22.4911L15.914 21.4756C16.014 21.3033 16.155 21.1405 16.3216 20.9961L15.5458 19.5554H13.7036C13.273 19.5554 12.9239 19.2063 12.9239 18.7756C12.9239 18.345 13.273 17.9959 13.7036 17.9959H15.9955C16.0057 17.9957 16.016 17.9957 16.0262 17.9959H17.8206C18.2513 17.9959 18.6004 18.345 18.6004 18.7756C18.6004 19.2063 18.2513 19.5554 17.8206 19.5554H17.317L17.7706 20.3978L17.7839 20.3978H23.9449L24.0087 17.6843H21.6881C21.2575 17.6843 20.9084 17.3352 20.9084 16.9045ZM14.5256 23.8693C14.2734 23.7991 14.0078 23.7617 13.7336 23.7617C12.1002 23.7617 10.772 25.0899 10.772 26.726C10.772 28.3622 12.1002 29.6904 13.7336 29.6904C15.1213 29.6904 16.2894 28.7304 16.6082 27.4372H13.7064C13.0163 27.4372 12.7374 26.9519 13.0841 26.3542L14.5256 23.8693ZM16.625 26.0867H14.7988L15.7083 24.5187C16.1616 24.9256 16.4893 25.4702 16.625 26.0867ZM18.2088 26.0867C18.0402 24.8968 17.4083 23.855 16.5018 23.1507L17.01 22.2746L19.0627 26.0867H18.2088ZM21.3766 25.5933C21.1273 25.4243 20.8265 25.3256 20.5027 25.3256C20.4766 25.3256 20.4508 25.3262 20.425 25.3275L18.4977 21.7483H23.6069L21.3766 25.5933ZM26.0603 24.6831C25.5543 25.2149 25.2435 25.9344 25.2435 26.726C25.2435 28.3622 26.5716 29.6904 28.2051 29.6904C29.8372 29.6904 31.1656 28.3624 31.1656 26.726C31.1656 25.0896 29.8372 23.7617 28.2051 23.7617C27.9238 23.7617 27.6517 23.801 27.3938 23.8746L28.593 25.8578C28.8159 26.2263 28.6978 26.7057 28.3293 26.9285C27.9608 27.1513 27.4814 27.0332 27.2586 26.6647L26.0603 24.6831Z" fill="white"/>
<defs>
<filter id="filter0_d_2561_24705" x="0" y="0" width="42" height="42" filterUnits="userSpaceOnUse" color-interpolation-filters="sRGB">
<feFlood flood-opacity="0" result="BackgroundImageFix"/>
<feColorMatrix in="SourceAlpha" type="matrix" values="0 0 0 0 0 0 0 0 0 0 0 0 0 0 0 0 0 0 127 0" result="hardAlpha"/>
<feOffset dy="1"/>
<feGaussianBlur stdDeviation="1.5"/>
<feComposite in2="hardAlpha" operator="out"/>
<feColorMatrix type="matrix" values="0 0 0 0 0 0 0 0 0 0 0 0 0 0 0 0 0 0 0.12 0"/>
<feBlend mode="normal" in2="BackgroundImageFix" result="effect1_dropShadow_2561_24705"/>
<feBlend mode="normal" in="SourceGraphic" in2="effect1_dropShadow_2561_24705" result="shape"/>
</filter>
</defs>
</svg>
