<svg width="170" height="40" viewBox="0 0 170 40" fill="none" xmlns="http://www.w3.org/2000/svg">
<path d="M2.51665 26.176C1.16556 25.752 0.0226603 25.0894 0.0226603 23.6528C0.0226603 21.8809 1.35888 20.7645 3.61494 20.7645C4.77272 20.7645 5.76762 20.9953 6.58408 21.3156L6.45803 22.4547C5.67132 22.0897 4.60985 21.8816 3.71903 21.8816C2.2419 21.8816 1.32135 22.4625 1.32135 23.542C1.32135 24.6214 2.20437 24.8373 3.0881 25.1278L4.66933 25.6341C6.31712 26.1774 7.08897 26.8997 7.08897 28.2767C7.08897 30.0109 5.67132 31.1728 3.45916 31.1728C2.27164 31.1728 0.875942 30.8972 0 30.4804L0.118964 29.3192C0.980036 29.7283 2.30846 30.0486 3.36285 30.0486C4.83219 30.0486 5.81223 29.4158 5.81223 28.3143C5.81223 27.5026 5.36683 27.0786 4.21613 26.7136L2.51665 26.1774V26.176Z" fill="black"/>
<path d="M9.59625 23.8758V25.0447C10.1309 24.2777 11.0656 23.7273 12.3423 23.7273C14.3838 23.7273 15.9346 25.3203 15.9346 27.4643C15.9346 29.6083 14.3831 31.1714 12.3423 31.1714C11.0656 31.1714 10.1302 30.6132 9.59625 29.8462V34H8.41582V23.8758H9.59625ZM9.58138 27.4636C9.58138 28.945 10.7023 30.099 12.2241 30.099C13.7458 30.099 14.7627 28.945 14.7627 27.4636C14.7627 25.9821 13.709 24.7983 12.2241 24.7983C10.7392 24.7983 9.58138 25.9892 9.58138 27.4636Z" fill="black"/>
<path d="M18.5992 24.9325C18.9999 24.1059 19.7052 23.7266 20.5217 23.7266C21.0266 23.7266 21.3976 23.853 21.5315 23.9127L21.4125 25.0071C21.2121 24.9325 20.9374 24.8281 20.4771 24.8281C19.5268 24.8281 18.5992 25.4538 18.5992 27.0538V31.0215H17.4116V23.875H18.5992V24.9325Z" fill="black"/>
<path d="M25.7392 23.7266C27.9068 23.7266 29.5248 25.3572 29.5248 27.4486C29.5248 29.5401 27.9068 31.1707 25.7392 31.1707C23.5717 31.1707 21.9536 29.5401 21.9536 27.4486C21.9536 25.3572 23.5717 23.7266 25.7392 23.7266ZM25.7392 30.0692C27.2383 30.0692 28.3444 28.923 28.3444 27.4486C28.3444 25.9743 27.2383 24.8281 25.7392 24.8281C24.2402 24.8281 23.1341 25.9743 23.1341 27.4486C23.1341 28.923 24.2402 30.0692 25.7392 30.0692Z" fill="black"/>
<path d="M32.9089 24.8956V28.7589C32.9089 29.697 33.4138 30.1061 34.141 30.1061C34.5269 30.1061 35.017 30.0315 35.3583 29.9051L35.5141 30.9249C35.2096 31.0592 34.5935 31.1707 34.015 31.1707C32.6419 31.1707 31.7292 30.4115 31.7292 28.9521V24.8948H30.4156V23.875H31.737V21.5826H32.9025V23.875H35.1812V24.8948L32.9089 24.8956Z" fill="black"/>
<path d="M38.5717 24.8956V28.7589C38.5717 29.697 39.0766 30.1061 39.8038 30.1061C40.1898 30.1061 40.6798 30.0315 41.0211 29.9051L41.1769 30.9249C40.8724 31.0592 40.2563 31.1707 39.6778 31.1707C38.3047 31.1707 37.392 30.4115 37.392 28.9521V24.8948H36.0784V23.875H37.3998V21.5826H38.5653V23.875H40.8441V24.8948L38.5717 24.8956Z" fill="black"/>
<path d="M48.7558 30.4711C47.9244 30.9548 47.0265 31.1707 46.0685 31.1707C43.6708 31.1707 42.0159 29.6523 42.0159 27.4486C42.0159 25.245 43.5447 23.7266 45.6825 23.7266C48.0951 23.7266 49.4603 25.6846 49.0744 27.8804H43.2473C43.4477 29.2873 44.6352 30.0614 46.0161 30.0614C46.8474 30.0614 47.5895 29.92 48.5469 29.3988L48.7543 30.4704L48.7558 30.4711ZM47.9988 26.9125C47.9173 25.6917 47.0782 24.8281 45.7201 24.8281C44.3619 24.8281 43.3896 25.6917 43.2778 26.9125H47.9988Z" fill="black"/>
<path d="M57.6329 26.6746V31.0222H56.4602V26.965C56.4602 25.5731 55.733 24.8437 54.4414 24.8437C53.2241 24.8437 52.237 25.6846 52.237 26.9877V31.0222H51.0566V23.8758H52.2441V24.9474C52.6449 24.2848 53.4911 23.7266 54.6269 23.7266C56.5049 23.7266 57.6329 24.8359 57.6329 26.6746Z" fill="black"/>
<path d="M61.8484 31.0223H59.8444V20.9129H67.0219V22.655H61.8484V25.0298H65.9088V26.7719H61.8484V31.0223Z" fill="black"/>
<path d="M70.1391 31.0223H68.2392V20.5408H70.1391V31.0223Z" fill="black"/>
<path d="M75.3423 23.7266C77.5318 23.7266 79.1499 25.3423 79.1499 27.4487C79.1499 29.555 77.5318 31.1707 75.3423 31.1707C73.1528 31.1707 71.5348 29.5629 71.5348 27.4487C71.5348 25.3345 73.1606 23.7266 75.3423 23.7266ZM75.3423 29.4435C76.4633 29.4435 77.2571 28.5949 77.2571 27.4487C77.2571 26.3024 76.4625 25.4609 75.3423 25.4609C74.2221 25.4609 73.4276 26.3095 73.4276 27.4487C73.4276 28.5878 74.2291 29.4435 75.3423 29.4435Z" fill="black"/>
<path d="M82.876 25.4609V28.401C82.876 29.1453 83.2916 29.4727 83.9296 29.4727C84.2858 29.4727 84.739 29.413 85.1398 29.3015L85.3183 30.8873C84.8806 31.0585 84.1754 31.17 83.5961 31.17C82.0298 31.17 80.9761 30.3582 80.9761 28.6758V25.4602H79.7737V23.8744H80.9839V21.5819H82.8321V23.8744H84.8955V25.4602L82.876 25.4609Z" fill="black"/>
<path d="M88.8362 25.4609V28.401C88.8362 29.1453 89.2519 29.4727 89.8899 29.4727C90.2461 29.4727 90.6993 29.413 91.1001 29.3015L91.2785 30.8873C90.8409 31.0585 90.1356 31.17 89.5564 31.17C87.99 31.17 86.9363 30.3582 86.9363 28.6758V25.4602H85.7339V23.8744H86.9441V21.5819H88.7923V23.8744H90.8558V25.4602L88.8362 25.4609Z" fill="black"/>
<path d="M98.7081 30.501C98.0177 30.8958 97.0603 31.1707 96.0208 31.1707C93.497 31.1707 91.879 29.6743 91.879 27.4487C91.879 25.223 93.4227 23.7266 95.5385 23.7266C97.6544 23.7266 99.3907 25.3792 98.9233 28.0218H93.7718C93.9651 29.0196 94.8552 29.4954 96.0285 29.4954C96.9116 29.4954 97.7358 29.2873 98.4411 28.9521L98.7081 30.501ZM97.2161 26.7413C97.1644 25.9445 96.5632 25.3345 95.5831 25.3345C94.6031 25.3345 93.8837 25.9303 93.8015 26.7413H97.2161Z" fill="black"/>
<path d="M82.766 4.62721C82.766 4.4873 82.6917 4.35805 82.5706 4.28774L75.3195 0.0899082C75.0589 -0.0606487 74.7338 0.127547 74.7338 0.429371V4.17057C74.7338 4.31047 74.8082 4.43972 74.9293 4.51003L78.1661 6.38418C78.4267 6.53474 78.4267 6.91184 78.1661 7.06239L74.9293 8.93654C74.8082 9.00614 74.7338 9.1361 74.7338 9.27601V13.0776C74.7338 13.3787 75.0589 13.5676 75.3195 13.417L82.5706 9.21919C82.6917 9.1496 82.766 9.01963 82.766 8.87973V4.62721Z" fill="#95C121"/>
<path d="M86.7973 7.2371L86.8271 7.22005L86.7973 7.2023V7.2371Z" fill="#95C121"/>
<path d="M74.2863 4.62721C74.2863 4.4873 74.212 4.35805 74.0909 4.28774L66.8397 0.0899082C66.5792 -0.0606487 66.2541 0.127547 66.2541 0.429371V4.17057C66.2541 4.31047 66.3285 4.43972 66.4496 4.51003L69.6864 6.38418C69.947 6.53474 69.947 6.91184 69.6864 7.06239L66.4496 8.93654C66.3285 9.00614 66.2541 9.1361 66.2541 9.27601V13.0776C66.2541 13.3787 66.5792 13.5676 66.8397 13.417L74.0909 9.21919C74.212 9.1496 74.2863 9.01963 74.2863 8.87973V4.62721Z" fill="#95C121"/>
<path d="M78.3176 7.2371L78.3474 7.22005L78.3176 7.2023V7.2371Z" fill="#95C121"/>
<path d="M89.2609 3.21467L83.7999 0.0529788C83.5393 -0.097578 83.2143 0.090618 83.2143 0.392442V4.13364C83.2143 4.27354 83.2886 4.40279 83.4097 4.4731L86.6465 6.34725C86.9071 6.49781 86.9071 6.87491 86.6465 7.02547L83.4097 8.89961C83.2886 8.96921 83.2143 9.09917 83.2143 9.23908V13.0406C83.2143 13.3418 83.5393 13.5307 83.7999 13.3801L94.7219 7.05671C94.9825 6.90616 94.9825 6.52905 94.7219 6.3785L89.2609 3.2168V3.21467Z" fill="#95C121"/>
</svg>
